<svg xmlns="http://www.w3.org/2000/svg" width="450" height="450" viewBox="0 0 64 64">
    <!-- Path 1 -->
    <path d="M56.25,18V46L32,60 7.75,46V18L32,4Z" fill="#6075f2"/>

    <!-- Path 2 -->
    <path d="m41.5,26.5v11L32,43V60L56.25,46V18Z" fill="#6b57ff"/>

    <!-- Path 3 with radial gradient -->
    <defs>
        <radialGradient id="grad1" cx="23.131" cy="18.441" r="42.132" gradientUnits="userSpaceOnUse">
            <stop offset="0" stop-color="#5383EC"/>
            <stop offset="0.867" stop-color="#7F52FF"/>
        </radialGradient>
    </defs>
    <path d="m32,43 l-9.5,-5.5v-11L7.75,18V46L32,60Z" fill="url(#grad1)"/>

    <!-- Path 4 with linear gradient -->
    <defs>
        <linearGradient id="grad2" x1="44.172" y1="4.377" x2="17.973" y2="34.035" gradientUnits="userSpaceOnUse">
            <stop offset="0" stop-color="#33C3FF"/>
            <stop offset="0.878" stop-color="#5383EC"/>
        </linearGradient>
    </defs>
    <path d="M22.5,26.5 L32,21 41.5,26.5 56.25,18 32,4 7.75,18Z" fill="url(#grad2)"/>

    <!-- Path 5 -->
    <path d="m32,21 l9.526,5.5v11L32,43 22.474,37.5v-11z" fill="#000000"/>
</svg>
